<svg xmlns="http://www.w3.org/2000/svg" width="35.026" height="35.162" viewBox="0 0 35.026 35.162">
 <defs>
    <style>
      path {
        fill: #ffffff;
        color-scheme: dark light;
      }
      @media (prefers-color-scheme: light) {
        path {
          fill: #333333;
        }
      }
    </style>
  </defs>
<path fill-rule="evenodd" d="M11.7067 28.0403C11.7067 28.1815 11.5444 28.2944 11.3397 28.2944C11.1069 28.3155 10.9446 28.2026 10.9446 28.0403C10.9446 27.8992 11.1069 27.7863 11.3115 27.7863C11.5232 27.7651 11.7067 27.878 11.7067 28.0403ZM9.5121 27.7228C9.4627 27.8639 9.60383 28.0262 9.81552 28.0685C9.99899 28.1391 10.2107 28.0685 10.253 27.9274C10.2954 27.7863 10.1613 27.624 9.9496 27.5605C9.76613 27.5111 9.56149 27.5817 9.5121 27.7228ZM12.631 27.6028C12.4264 27.6522 12.2853 27.7863 12.3065 27.9486C12.3276 28.0897 12.5111 28.1815 12.7228 28.1321C12.9274 28.0827 13.0685 27.9486 13.0474 27.8075C13.0262 27.6734 12.8357 27.5817 12.631 27.6028ZM17.2742 0.5625C7.4869 0.5625 0 7.99294 0 17.7802C0 25.6058 4.9254 32.3024 11.9607 34.6593C12.8639 34.8216 13.1815 34.2641 13.1815 33.8054C13.1815 33.3679 13.1603 30.9546 13.1603 29.4728C13.1603 29.4728 8.22077 30.5312 7.18347 27.37C7.18347 27.37 6.37903 25.3165 5.22177 24.7873C5.22177 24.7873 3.60585 23.6794 5.33468 23.7006C5.33468 23.7006 7.09173 23.8417 8.05847 25.5212C9.60383 28.245 12.1935 27.4617 13.2026 26.996C13.3649 25.8669 13.8236 25.0837 14.3317 24.6179C10.3871 24.1804 6.40726 23.6089 6.40726 16.8206C6.40726 14.88 6.94355 13.9062 8.07258 12.6643C7.88911 12.2056 7.28931 10.3145 8.25605 7.87298C9.73085 7.41431 13.125 9.77823 13.125 9.77823C14.5363 9.38306 16.0534 9.17843 17.5565 9.17843C19.0595 9.17843 20.5766 9.38306 21.9879 9.77823C21.9879 9.77823 25.3821 7.40726 26.8569 7.87298C27.8236 10.3216 27.2238 12.2056 27.0403 12.6643C28.1694 13.9133 28.8609 14.8871 28.8609 16.8206C28.8609 23.63 24.7046 24.1734 20.7601 24.6179C21.4093 25.1754 21.9597 26.2339 21.9597 27.8921C21.9597 30.2702 21.9385 33.2127 21.9385 33.7913C21.9385 34.25 22.2631 34.8075 23.1593 34.6452C30.2157 32.3024 35 25.6058 35 17.7802C35 7.99294 27.0615 0.5625 17.2742 0.5625ZM6.85887 24.9002C6.76714 24.9708 6.78831 25.1331 6.90827 25.2671C7.02117 25.38 7.18347 25.4294 7.2752 25.3377C7.36694 25.2671 7.34577 25.1048 7.22581 24.9708C7.1129 24.8579 6.9506 24.8085 6.85887 24.9002ZM6.09677 24.3286C6.04738 24.4204 6.11794 24.5333 6.25907 24.6038C6.37198 24.6744 6.5131 24.6532 6.5625 24.5544C6.6119 24.4627 6.54133 24.3498 6.4002 24.2792C6.25907 24.2369 6.14617 24.2581 6.09677 24.3286ZM8.38306 26.8407C8.27016 26.9325 8.3125 27.1442 8.4748 27.2782C8.6371 27.4405 8.84173 27.4617 8.93347 27.3488C9.0252 27.2571 8.98286 27.0454 8.84173 26.9113C8.68649 26.749 8.4748 26.7278 8.38306 26.8407ZM7.57863 25.8034C7.46573 25.874 7.46573 26.0575 7.57863 26.2198C7.69153 26.3821 7.88206 26.4526 7.97379 26.3821C8.08669 26.2903 8.08669 26.1069 7.97379 25.9446C7.875 25.7823 7.69153 25.7117 7.57863 25.8034Z"/>
</svg>